<svg xmlns="http://www.w3.org/2000/svg" width="32" viewBox="0 0 375 375" height="32" version="1.0"><path fill="#FFF" d="M-37.5 -37.5H412.5V412.5H-37.5z"/><path fill="#FFF" d="M-37.5 -37.5H412.5V412.5H-37.5z"/><path fill="#E5261F" d="M-37.5 -37.5H412.5V412.5H-37.5z"/><path fill="#FFF" d="M 19.429688 20.667969 L 19.429688 349.917969 L 359.925781 349.917969 L 359.925781 20.667969 L 19.429688 20.667969 M 346.6875 336.6875 L 32.390625 336.6875 L 32.390625 33.621094 L 346.6875 33.621094 L 346.6875 336.6875"/><path fill="#FFF" d="M 71.210938 265.511719 L 169.910156 307.800781 C 172.988281 309.121094 176.167969 310.117188 179.449219 310.789062 C 182.730469 311.464844 186.042969 311.800781 189.394531 311.800781 C 192.742188 311.800781 196.054688 311.464844 199.335938 310.789062 C 202.617188 310.117188 205.796875 309.121094 208.875 307.800781 L 307.574219 265.511719 C 308.777344 264.960938 309.875 264.25 310.875 263.378906 C 311.875 262.511719 312.730469 261.519531 313.445312 260.402344 C 314.15625 259.289062 314.699219 258.097656 315.074219 256.824219 C 315.445312 255.554688 315.628906 254.257812 315.628906 252.933594 C 315.628906 251.609375 315.445312 250.3125 315.074219 249.042969 C 314.699219 247.773438 314.15625 246.578125 313.445312 245.464844 C 312.730469 244.351562 311.875 243.359375 310.875 242.488281 C 309.875 241.621094 308.777344 240.90625 307.574219 240.355469 L 291.785156 233.613281 C 290.160156 232.914062 288.480469 232.386719 286.746094 232.03125 C 285.011719 231.675781 283.261719 231.496094 281.492188 231.496094 C 279.722656 231.496094 277.96875 231.675781 276.234375 232.03125 C 274.503906 232.386719 272.820312 232.914062 271.195312 233.613281 L 217.414062 256.695312 C 210.808594 259.632812 203.914062 261.523438 196.734375 262.375 C 190.914062 263.007812 185.109375 262.886719 179.320312 262.019531 C 173.53125 261.152344 167.949219 259.5625 162.570312 257.25 L 107.542969 233.613281 C 105.917969 232.914062 104.238281 232.386719 102.503906 232.03125 C 100.769531 231.675781 99.019531 231.496094 97.25 231.496094 C 95.480469 231.496094 93.726562 231.675781 91.992188 232.03125 C 90.261719 232.386719 88.582031 232.914062 86.953125 233.613281 L 71.210938 240.355469 C 70.011719 240.90625 68.910156 241.621094 67.910156 242.488281 C 66.914062 243.359375 66.054688 244.351562 65.34375 245.464844 C 64.628906 246.578125 64.085938 247.773438 63.714844 249.042969 C 63.339844 250.3125 63.15625 251.609375 63.15625 252.933594 C 63.15625 254.257812 63.339844 255.554688 63.714844 256.824219 C 64.085938 258.097656 64.628906 259.289062 65.34375 260.402344 C 66.054688 261.519531 66.914062 262.511719 67.910156 263.378906 C 68.910156 264.25 70.011719 264.960938 71.210938 265.511719 Z M 71.210938 265.511719"/><path fill="#FFF" d="M 71.210938 130.390625 L 169.910156 172.675781 C 172.988281 173.996094 176.167969 174.992188 179.449219 175.667969 C 182.730469 176.339844 186.042969 176.675781 189.394531 176.675781 C 192.742188 176.675781 196.054688 176.339844 199.335938 175.667969 C 202.617188 174.992188 205.796875 173.996094 208.875 172.675781 L 307.574219 130.390625 C 308.777344 129.835938 309.875 129.125 310.875 128.257812 C 311.875 127.386719 312.730469 126.394531 313.445312 125.28125 C 314.15625 124.164062 314.699219 122.972656 315.074219 121.703125 C 315.445312 120.433594 315.628906 119.136719 315.628906 117.8125 C 315.628906 116.488281 315.445312 115.191406 315.074219 113.917969 C 314.699219 112.648438 314.15625 111.457031 313.445312 110.339844 C 312.730469 109.226562 311.875 108.234375 310.875 107.367188 C 309.875 106.496094 308.777344 105.785156 307.574219 105.230469 L 208.875 62.945312 C 205.796875 61.625 202.617188 60.628906 199.335938 59.957031 C 196.054688 59.28125 192.742188 58.945312 189.394531 58.945312 C 186.042969 58.945312 182.730469 59.28125 179.449219 59.957031 C 176.167969 60.628906 172.988281 61.625 169.910156 62.945312 L 71.210938 105.230469 C 70.011719 105.785156 68.910156 106.496094 67.910156 107.367188 C 66.914062 108.234375 66.054688 109.226562 65.34375 110.339844 C 64.628906 111.457031 64.085938 112.648438 63.714844 113.917969 C 63.339844 115.191406 63.15625 116.488281 63.15625 117.8125 C 63.15625 119.136719 63.339844 120.433594 63.714844 121.703125 C 64.085938 122.972656 64.628906 124.164062 65.34375 125.28125 C 66.054688 126.394531 66.914062 127.386719 67.910156 128.257812 C 68.910156 129.125 70.011719 129.835938 71.210938 130.390625 Z M 71.210938 130.390625"/><path fill="#FFF" d="M 71.210938 197.929688 L 169.910156 240.214844 C 172.988281 241.535156 176.167969 242.53125 179.449219 243.207031 C 182.730469 243.878906 186.042969 244.214844 189.394531 244.214844 C 192.742188 244.214844 196.054688 243.878906 199.335938 243.207031 C 202.617188 242.53125 205.796875 241.535156 208.875 240.214844 L 307.574219 197.929688 C 308.777344 197.375 309.875 196.664062 310.875 195.792969 C 311.875 194.925781 312.730469 193.933594 313.445312 192.820312 C 314.15625 191.703125 314.699219 190.511719 315.074219 189.242188 C 315.445312 187.96875 315.628906 186.671875 315.628906 185.347656 C 315.628906 184.027344 315.445312 182.726562 315.074219 181.457031 C 314.699219 180.1875 314.15625 178.996094 313.445312 177.878906 C 312.730469 176.765625 311.875 175.773438 310.875 174.902344 C 309.875 174.035156 308.777344 173.324219 307.574219 172.769531 L 291.785156 166.03125 C 290.164062 165.335938 288.484375 164.808594 286.757812 164.453125 C 285.027344 164.097656 283.28125 163.921875 281.515625 163.921875 C 279.75 163.921875 278 164.097656 276.269531 164.453125 C 274.542969 164.808594 272.863281 165.335938 271.242188 166.03125 L 217.460938 189.113281 C 210.84375 191.984375 203.949219 193.816406 196.777344 194.605469 C 190.960938 195.238281 185.15625 195.121094 179.367188 194.25 C 173.578125 193.382812 167.996094 191.792969 162.617188 189.480469 L 107.542969 166.03125 C 105.921875 165.335938 104.246094 164.808594 102.515625 164.453125 C 100.785156 164.097656 99.039062 163.921875 97.273438 163.921875 C 95.507812 163.921875 93.757812 164.097656 92.03125 164.453125 C 90.300781 164.808594 88.625 165.335938 87 166.03125 L 71.210938 172.816406 C 70.015625 173.371094 68.921875 174.085938 67.929688 174.953125 C 66.9375 175.824219 66.085938 176.8125 65.378906 177.925781 C 64.667969 179.039062 64.128906 180.226562 63.757812 181.496094 C 63.390625 182.761719 63.207031 184.054688 63.207031 185.371094 C 63.207031 186.691406 63.390625 187.984375 63.757812 189.25 C 64.128906 190.515625 64.667969 191.707031 65.378906 192.820312 C 66.085938 193.929688 66.9375 194.921875 67.929688 195.789062 C 68.921875 196.660156 70.015625 197.371094 71.210938 197.929688 Z M 71.210938 197.929688"/></svg>
